<?xml version="1.0" standalone="no"?>
<!DOCTYPE svg PUBLIC "-//W3C//DTD SVG 20010904//EN"
 "http://www.w3.org/TR/2001/REC-SVG-20010904/DTD/svg10.dtd">
<svg version="1.0" xmlns="http://www.w3.org/2000/svg"
 width="808.000000pt" height="428.000000pt" viewBox="0 0 808.000000 428.000000"
 preserveAspectRatio="xMidYMid meet">

<g transform="translate(0.000000,428.000000) scale(0.100000,-0.100000)"
fill="#000000" stroke="none">
<path d="M0 2140 l0 -2140 4040 0 4040 0 0 2140 0 2140 -4040 0 -4040 0 0
-2140z m3683 1347 c10 -34 36 -100 58 -146 l39 -83 -27 -47 c-15 -25 -35 -58
-45 -73 l-19 -27 -85 30 c-119 42 -264 110 -264 123 0 12 131 248 151 272 8
10 36 14 93 14 l81 0 18 -63z m220 26 c-8 -21 -31 -69 -50 -108 l-35 -69 -15
28 c-16 30 -63 163 -63 178 0 4 40 8 89 8 l90 0 -16 -37z m575 9 c9 -12 31
-47 47 -78 l30 -55 -29 -52 c-15 -29 -57 -98 -92 -153 l-65 -102 -57 -10 c-85
-16 -235 -25 -281 -17 -39 6 -45 13 -107 105 l-65 98 34 69 c31 61 73 157 90
206 6 17 23 18 242 15 232 -3 236 -3 253 -26z m151 -266 c17 -29 31 -56 31
-58 0 -7 -181 -91 -185 -86 -2 2 19 39 46 83 26 44 53 88 59 98 6 9 12 17 14
17 3 0 18 -24 35 -54z m-1239 -101 c51 -24 127 -57 171 -72 43 -15 79 -33 79
-38 0 -14 -170 -232 -212 -273 l-34 -32 -99 71 c-55 39 -112 78 -128 87 -15 9
-26 22 -25 28 3 10 151 273 155 274 1 0 43 -20 93 -45z m483 -44 l30 -44 -52
7 c-94 12 -95 14 -59 70 27 45 31 48 41 30 5 -10 24 -39 40 -63z m867 -50 l42
-74 -59 -53 c-33 -29 -97 -98 -143 -153 -46 -56 -85 -101 -87 -101 -9 0 -153
76 -194 103 l-47 30 77 103 76 103 90 31 c50 17 115 44 145 60 30 15 56 27 57
27 1 -1 20 -35 43 -76z m-965 -41 c22 -6 72 -14 111 -20 l71 -9 97 -96 96 -97
-122 -125 c-68 -69 -159 -156 -202 -194 l-79 -67 -148 141 -147 141 57 66 c65
73 190 235 198 256 6 16 15 17 68 4z m484 -85 c-28 -36 -55 -67 -60 -71 -9 -5
-129 103 -129 117 0 5 42 10 93 12 50 1 104 4 120 5 27 2 27 2 -24 -63z m635
-139 c25 -43 46 -83 46 -88 0 -18 -64 -130 -76 -135 -21 -8 -269 62 -293 83
-6 6 67 92 158 187 l85 88 16 -28 c9 -15 38 -63 64 -107z m-1685 -10 c53 -35
105 -74 116 -86 l20 -22 -55 -50 c-30 -27 -77 -68 -104 -90 -47 -38 -51 -39
-64 -21 -24 33 -102 180 -102 193 0 19 72 140 84 140 5 0 52 -29 105 -64z
m1042 -52 c19 -14 73 -46 122 -70 l87 -44 -49 -74 -50 -73 -93 -5 c-69 -4
-110 -12 -158 -32 -81 -33 -164 -87 -211 -138 l-36 -38 -37 47 -37 47 88 80
c48 43 142 134 208 202 66 68 123 123 126 124 3 0 21 -12 40 -26z m-760 -169
c72 -63 189 -185 189 -198 0 -19 -329 -232 -341 -220 -4 4 -44 71 -88 148
l-82 140 43 35 c24 19 75 65 113 102 39 37 73 67 77 65 5 -1 44 -33 89 -72z
m1187 -19 c68 -20 130 -36 139 -36 8 0 13 -3 11 -8 -13 -30 -91 -163 -99 -167
-5 -4 -21 2 -37 13 -42 30 -142 78 -192 93 -25 7 -48 15 -53 19 -4 3 11 35 33
69 30 46 46 62 58 58 9 -3 72 -21 140 -41z m-358 -143 c0 -4 -15 -43 -34 -88
-48 -110 -82 -233 -97 -348 l-13 -97 -71 0 -71 0 -14 67 c-7 38 -34 109 -62
164 -26 53 -48 101 -48 107 0 21 114 115 174 143 84 39 236 73 236 52z m141
-19 c61 -18 172 -72 208 -101 l23 -19 -108 -190 c-59 -104 -113 -192 -118
-196 -6 -4 -59 -8 -119 -8 l-107 0 6 43 c22 160 67 314 125 430 16 31 31 57
32 57 2 0 28 -7 58 -16z m-682 -126 l39 -53 -44 -90 c-24 -49 -52 -125 -61
-168 l-18 -78 -99 3 -99 3 -59 98 c-32 55 -58 102 -58 105 0 4 26 21 58 39 31
17 109 67 172 111 63 44 118 81 122 81 4 1 25 -23 47 -51z m156 -281 c14 -43
25 -85 25 -93 0 -11 -19 -14 -95 -14 -67 0 -95 4 -95 12 0 27 44 167 67 213
l25 49 24 -44 c13 -25 35 -80 49 -123z m-1712 -432 c11 -5 16 -14 13 -22 -4
-8 -9 -26 -12 -40 -5 -17 -11 -22 -23 -18 -56 23 -134 17 -145 -11 -6 -17 19
-54 36 -54 4 0 37 -14 73 -31 73 -34 95 -64 95 -126 0 -21 -9 -52 -20 -70 -35
-58 -148 -76 -257 -42 -37 12 -37 13 -22 58 10 27 15 31 33 25 41 -14 136 -16
151 -4 37 31 11 64 -76 99 -65 26 -104 63 -114 107 -7 37 12 90 43 117 35 32
158 38 225 12z m613 -6 c109 -51 146 -229 71 -341 -55 -81 -185 -108 -282 -58
-143 74 -143 322 0 398 65 34 139 34 211 1z m2373 17 c52 -9 61 -20 48 -62 -9
-29 -14 -34 -31 -29 -140 40 -212 -10 -204 -142 3 -52 9 -68 30 -89 30 -31 94
-41 153 -25 46 12 56 6 58 -40 2 -32 0 -34 -48 -47 -62 -16 -161 -8 -202 18
-98 59 -128 205 -66 320 29 56 76 89 140 99 47 8 55 8 122 -3z m-3821 -13 c5
-10 31 -80 58 -155 26 -76 51 -138 55 -138 4 0 24 48 45 108 77 219 64 197
113 200 24 2 47 0 51 -5 8 -9 -41 -146 -115 -322 l-47 -111 -48 0 -47 0 -29
63 c-46 100 -143 361 -138 369 3 5 25 8 49 8 32 0 47 -5 53 -17z m482 -204 l0
-220 -47 3 -48 3 -2 205 c-1 113 0 211 2 218 3 7 22 12 50 12 l45 0 0 -221z
m560 1 l0 -220 -45 0 -45 0 0 220 0 220 45 0 45 0 0 -220z m718 173 c22 -27
65 -83 95 -126 l56 -78 3 123 3 123 48 3 47 3 0 -220 0 -221 -39 0 c-37 0 -41
3 -81 68 -23 37 -65 98 -94 137 l-51 69 -5 -134 -5 -135 -47 -3 -48 -3 0 220
0 221 39 0 c34 0 44 -6 79 -47z m618 -53 c45 -104 108 -269 119 -312 7 -28 7
-28 -43 -28 -50 0 -50 0 -64 43 l-15 42 -88 0 -88 0 -14 -42 c-15 -43 -15 -43
-64 -43 -27 0 -49 3 -49 8 0 11 95 260 125 327 15 33 31 70 36 83 8 20 15 23
56 20 l48 -3 41 -95z m407 89 c21 -5 52 -22 69 -37 56 -51 47 -156 -17 -198
l-25 -16 24 -31 c32 -44 76 -123 76 -137 0 -7 -18 -10 -52 -8 l-51 3 -46 75
c-37 60 -52 76 -74 78 l-27 3 0 -80 0 -81 -50 0 -50 0 0 214 c0 196 2 215 18
219 34 9 168 7 205 -4z m306 -82 c52 -100 46 -102 109 20 l37 73 48 0 c26 0
47 -5 47 -10 0 -15 -36 -83 -89 -170 -44 -71 -46 -79 -51 -165 l-5 -90 -47 -3
-48 -3 0 81 0 81 -59 97 c-68 113 -91 157 -91 172 0 7 19 10 51 8 l52 -3 46
-88z m1084 81 c49 -15 92 -57 101 -99 9 -45 -13 -108 -43 -127 -14 -9 -28 -17
-29 -18 -2 -2 19 -40 47 -85 28 -46 51 -87 51 -91 0 -4 -24 -8 -54 -8 l-53 0
-47 80 c-38 66 -51 80 -71 80 -23 0 -24 -3 -27 -77 l-3 -78 -47 -3 -48 -3 0
215 c0 162 3 216 13 219 24 10 171 7 210 -5z m485 -35 l3 -43 -100 0 -101 0 0
-40 0 -39 88 -3 87 -3 3 -37 3 -37 -88 -3 -88 -3 -3 -47 -3 -48 105 0 106 0 0
-45 0 -46 -152 3 -153 3 -3 205 c-1 112 0 210 3 218 3 10 37 12 147 10 l143
-3 3 -42z m157 25 c3 -13 16 -79 30 -147 14 -69 27 -126 29 -129 4 -4 18 41
61 191 l16 57 43 0 42 0 33 -115 c18 -63 37 -117 41 -120 4 -3 20 56 34 131
14 75 29 140 32 145 3 5 25 9 50 9 36 0 44 -3 44 -18 0 -21 -61 -269 -88 -357
l-18 -60 -47 -3 -46 -3 -38 120 c-21 67 -40 121 -43 121 -3 0 -22 -54 -43
-121 l-38 -120 -46 3 -47 3 -18 60 c-27 88 -88 336 -88 357 0 15 8 18 50 18
43 0 50 -3 55 -22z m-4320 -588 c-3 -5 -17 -10 -31 -10 -15 0 -24 -6 -24 -15
0 -9 9 -15 24 -15 14 0 28 -4 31 -10 4 -6 -7 -10 -24 -10 -24 0 -31 -4 -31
-19 0 -15 8 -21 33 -24 31 -4 31 -4 -5 -5 l-38 -2 0 60 0 60 36 0 c21 0 33 -4
29 -10z m148 -103 c18 -4 17 -5 -5 -6 -28 -1 -28 -1 -26 62 l2 62 3 -57 c3
-49 7 -57 26 -61z m187 103 c0 -5 -13 -10 -30 -10 -20 0 -30 -5 -30 -15 0 -10
10 -15 30 -15 17 0 30 -4 30 -10 0 -5 -13 -10 -30 -10 -23 0 -30 -5 -30 -19 0
-15 8 -21 33 -24 31 -4 31 -4 -5 -5 l-38 -2 0 60 0 60 35 0 c19 0 35 -4 35
-10z m131 -37 l20 -47 24 49 c31 66 32 43 1 -26 l-24 -54 -26 58 c-27 61 -29
67 -21 67 3 0 15 -21 26 -47z m233 -53 c6 -23 6 -23 -7 -7 -17 21 -56 22 -63
2 -4 -8 -10 -15 -15 -15 -4 0 -1 17 8 38 8 20 20 48 25 62 10 25 10 25 28 -15
9 -22 20 -51 24 -65z m139 93 c-8 -3 -13 -25 -13 -59 0 -30 -4 -54 -10 -54 -5
0 -10 24 -10 54 0 34 -5 56 -12 59 -7 3 3 5 22 5 19 0 29 -2 23 -5z m177 -3
c0 -5 -11 -10 -25 -10 -16 0 -25 -6 -25 -15 0 -9 9 -15 25 -15 14 0 25 -4 25
-10 0 -5 -11 -10 -25 -10 -18 0 -25 -5 -25 -19 0 -15 8 -21 33 -24 28 -3 26
-4 -10 -5 l-43 -2 0 53 c0 30 3 57 7 60 10 11 63 8 63 -3z m251 -52 c-2 -75
-11 -73 -11 2 0 35 3 60 7 57 3 -4 5 -30 4 -59z m170 51 c27 -14 39 -49 26
-74 -14 -27 -27 -35 -59 -35 -27 0 -28 1 -28 60 0 54 2 60 21 60 11 0 29 -5
40 -11z m204 1 c-3 -5 -17 -10 -31 -10 -15 0 -24 -6 -24 -15 0 -9 9 -15 24
-15 14 0 28 -4 31 -10 4 -6 -7 -10 -24 -10 -24 0 -31 -4 -31 -19 0 -15 8 -21
33 -24 31 -4 31 -4 -5 -5 l-38 -2 0 60 0 60 36 0 c21 0 33 -4 29 -10z m181
-53 c21 -50 23 -81 3 -44 -13 22 -55 22 -63 1 -4 -9 -9 -15 -11 -12 -3 3 4 31
16 62 12 31 24 54 28 51 3 -3 15 -29 27 -58z m184 48 c14 -17 0 -21 -16 -5
-12 12 -44 3 -44 -11 0 -5 16 -15 36 -24 28 -11 35 -19 32 -37 -2 -19 -9 -23
-37 -23 -20 0 -36 6 -39 13 -3 11 0 11 16 1 20 -13 52 -7 52 11 0 5 -16 16
-35 24 -23 10 -35 22 -35 35 0 31 48 42 70 16z m426 -15 c1 -14 5 -33 9 -42
13 -31 -2 -48 -40 -48 l-35 0 0 53 c0 62 5 69 40 65 19 -2 25 -9 26 -28z m178
14 c20 -20 20 -29 0 -49 -13 -12 -14 -19 -5 -28 22 -22 11 -30 -12 -9 -29 28
-35 27 -40 0 -2 -13 -5 5 -6 40 -1 59 0 62 23 62 14 0 32 -7 40 -16z m186 6
c0 -5 -13 -10 -30 -10 -20 0 -30 -5 -30 -15 0 -9 9 -15 24 -15 14 0 28 -4 31
-10 4 -6 -7 -10 -24 -10 -24 0 -31 -4 -31 -19 0 -15 8 -21 33 -24 31 -4 31 -4
-5 -5 l-38 -2 0 60 0 60 35 0 c19 0 35 -4 35 -10z m179 -57 c11 -29 16 -53 11
-53 -6 0 -10 7 -10 15 0 21 -56 20 -64 -1 -4 -9 -9 -15 -12 -12 -3 3 5 31 18
61 13 31 26 53 30 49 3 -4 16 -31 27 -59z m154 41 c10 15 21 25 24 23 3 -3 -6
-21 -20 -39 -14 -18 -27 -44 -30 -58 -2 -14 -4 4 -4 40 -1 42 2 55 6 35 l6
-29 18 28z m295 -87 c25 -4 24 -4 -5 -6 l-33 -1 2 63 2 62 3 -57 c4 -53 6 -57
31 -61z m132 53 c0 -33 -4 -60 -10 -60 -11 0 -14 103 -3 113 12 12 13 8 13
-53z m160 -20 c5 0 15 18 21 40 7 22 14 38 16 36 9 -9 30 -116 23 -116 -4 0
-11 17 -15 38 l-8 37 -16 -37 c-9 -21 -18 -38 -21 -38 -3 0 -12 17 -21 38
l-16 37 -8 -37 c-4 -21 -11 -38 -15 -38 -5 0 -5 15 0 33 4 17 11 46 15 62 l7
30 15 -42 c8 -24 19 -43 23 -43z m180 20 c0 -33 -4 -60 -10 -60 -6 0 -10 27
-10 60 0 33 4 60 10 60 6 0 10 -27 10 -60z m153 53 c-8 -3 -13 -25 -13 -59 0
-30 -4 -54 -10 -54 -5 0 -10 24 -10 54 0 44 -4 55 -17 59 -10 3 0 5 22 5 22 0
34 -2 28 -5z m178 -10 c13 -15 12 -15 -8 -5 -22 12 -53 7 -53 -9 0 -5 12 -14
27 -20 44 -17 54 -28 42 -51 -12 -23 -70 -22 -77 2 -4 12 -2 13 9 3 18 -18 59
-16 59 2 0 8 -16 21 -35 29 -36 15 -44 33 -23 54 17 17 43 15 59 -5z m-1076
-101 c-6 -7 -34 29 -34 43 0 6 9 -1 20 -14 11 -13 17 -26 14 -29z m-1019 -8
c-4 -9 -9 -15 -11 -12 -3 3 -3 13 1 22 4 9 9 15 11 12 3 -3 3 -13 -1 -22z"/>
<path d="M2678 1465 c-83 -47 -76 -223 10 -256 38 -15 92 -4 120 24 48 48 48
166 0 214 -31 31 -92 39 -130 18z"/>
<path d="M3646 1383 c-14 -38 -26 -74 -26 -81 0 -8 18 -12 55 -12 30 0 55 4
55 10 0 10 -48 141 -54 148 -2 2 -16 -28 -30 -65z"/>
<path d="M4050 1420 l0 -60 34 0 c70 0 106 31 91 79 -6 21 -53 41 -96 41 -29
0 -29 -1 -29 -60z"/>
<path d="M5440 1421 l0 -61 38 0 c50 0 82 23 82 59 0 37 -16 50 -74 57 l-46 7
0 -62z"/>
<path d="M2532 910 c-7 -19 -6 -26 5 -28 22 -5 27 5 16 30 l-11 23 -10 -25z"/>
<path d="M3280 895 c0 -46 7 -53 41 -35 36 20 18 80 -23 80 -15 0 -18 -8 -18
-45z"/>
<path d="M3670 921 c0 -5 -3 -16 -6 -25 -4 -11 0 -16 14 -16 15 0 19 5 15 20
-6 22 -23 38 -23 21z"/>
<path d="M4270 925 c0 -8 9 -15 20 -15 11 0 20 7 20 15 0 8 -9 15 -20 15 -11
0 -20 -7 -20 -15z"/>
<path d="M4270 875 c0 -18 5 -25 20 -25 25 0 38 29 19 41 -25 15 -39 10 -39
-16z"/>
<path d="M4440 920 c0 -15 7 -20 25 -20 18 0 25 5 25 20 0 15 -7 20 -25 20
-18 0 -25 -5 -25 -20z"/>
<path d="M4820 921 c0 -5 -3 -16 -6 -25 -4 -11 0 -16 14 -16 15 0 19 5 15 20
-6 22 -23 38 -23 21z"/>
</g>
</svg>
